<?xml version="1.0" encoding="utf-8"?>
<!-- Generator: Adobe Illustrator 25.4.1, SVG Export Plug-In . SVG Version: 6.00 Build 0)  -->
<svg version="1.1" id="Ebene_1" xmlns="http://www.w3.org/2000/svg" xmlns:xlink="http://www.w3.org/1999/xlink" x="0px" y="0px"
	 viewBox="0 0 200 56.5" style="enable-background:new 0 0 200 56.5;" xml:space="preserve">
<style type="text/css">
	.st0{enable-background:new    ;}
</style>
<g class="st0">
	<path d="M34.3,28.3c0,2.9-0.5,5.4-1.5,7.6s-2.4,3.8-4.1,4.9c-1.8,1.1-3.9,1.7-6.3,1.7c-2.3,0-4.4-0.6-6.2-1.7S13,38,12,35.9
		s-1.5-4.6-1.5-7.4v-2c0-2.8,0.5-5.4,1.5-7.5c1-2.2,2.4-3.9,4.2-5c1.8-1.2,3.9-1.7,6.2-1.7c2.4,0,4.5,0.6,6.3,1.7s3.2,2.8,4.2,5
		s1.5,4.7,1.5,7.6L34.3,28.3L34.3,28.3z M30.4,26.4c0-3.5-0.7-6.2-2.1-8.1s-3.4-2.8-5.9-2.8s-4.4,0.9-5.8,2.8s-2.1,4.5-2.2,7.8v2.2
		c0,3.4,0.7,6.1,2.1,8s3.4,2.9,5.9,2.9s4.5-0.9,5.9-2.8c1.4-1.8,2.1-4.5,2.1-7.9V26.4z"/>
	<path d="M60.1,15.8h-9.5v26.4h-3.9V15.8h-9.5v-3.2h22.9V15.8z"/>
	<path d="M68.6,42.2h-3.9V12.6h3.9V42.2z"/>
	<path d="M98.5,28.3c0,2.9-0.5,5.4-1.5,7.6s-2.4,3.8-4.1,4.9c-1.8,1.1-3.9,1.7-6.3,1.7c-2.3,0-4.4-0.6-6.2-1.7s-3.2-2.8-4.2-4.9
		s-1.5-4.6-1.5-7.4v-2c0-2.8,0.5-5.4,1.5-7.5c1-2.2,2.4-3.9,4.2-5c1.8-1.2,3.9-1.7,6.2-1.7c2.4,0,4.5,0.6,6.3,1.7s3.2,2.8,4.2,5
		s1.5,4.7,1.5,7.6L98.5,28.3L98.5,28.3z M94.6,26.4c0-3.5-0.7-6.2-2.1-8.1c-1.4-1.9-3.4-2.8-5.9-2.8s-4.4,0.9-5.8,2.8
		c-1.4,1.9-2.1,4.5-2.2,7.8v2.2c0,3.4,0.7,6.1,2.1,8c1.4,1.9,3.4,2.9,5.9,2.9s4.5-0.9,5.9-2.8c1.4-1.8,2.1-4.5,2.1-7.9V26.4z"/>
	<path d="M113.1,29c-3.3-1-5.8-2.1-7.3-3.5s-2.3-3.1-2.3-5.2c0-2.3,0.9-4.3,2.8-5.8s4.3-2.3,7.3-2.3c2,0,3.8,0.4,5.4,1.2
		c1.6,0.8,2.8,1.9,3.7,3.3s1.3,2.9,1.3,4.5h-3.9c0-1.8-0.6-3.2-1.7-4.2c-1.1-1-2.7-1.5-4.8-1.5c-1.9,0-3.4,0.4-4.5,1.3
		c-1.1,0.8-1.6,2-1.6,3.5c0,1.2,0.5,2.2,1.5,3.1c1,0.8,2.8,1.6,5.2,2.3c2.5,0.7,4.4,1.5,5.8,2.3c1.4,0.8,2.4,1.8,3.1,2.9
		c0.7,1.1,1,2.4,1,3.9c0,2.4-0.9,4.3-2.8,5.8c-1.9,1.4-4.4,2.2-7.5,2.2c-2,0-3.9-0.4-5.7-1.2c-1.8-0.8-3.1-1.8-4.1-3.2
		c-1-1.4-1.4-2.9-1.4-4.6h3.9c0,1.8,0.7,3.2,2,4.2s3.1,1.6,5.3,1.6c2.1,0,3.6-0.4,4.7-1.3c1.1-0.8,1.6-2,1.6-3.4s-0.5-2.6-1.5-3.4
		C117.6,30.5,115.8,29.7,113.1,29z"/>
	<path d="M149.9,12.6v20.1c0,2.8-0.9,5.1-2.6,6.8c-1.7,1.8-4.1,2.8-7.1,3h-1c-3.2,0-5.8-0.9-7.7-2.6s-2.9-4.2-2.9-7.2V12.6h3.9v20
		c0,2.1,0.6,3.8,1.8,5s2.9,1.8,5,1.8c2.2,0,3.9-0.6,5.1-1.8c1.2-1.2,1.8-2.8,1.8-5v-20H149.9z"/>
	<path d="M161.1,12.6l9.7,24.1l9.7-24.1h5.1v29.6h-3.9V30.6l0.4-12.4l-9.7,24h-3l-9.7-23.9l0.4,12.4v11.5H156V12.6H161.1z"/>
</g>
<rect x="190.5" y="39.2" width="3" height="3"/>
</svg>
